# xmcd
#
# Track frame offsets:
#	225
#	23812
#	43881
#	53775
#	84825
#	97899
#	115477
#	133425
#	150841
#	165259
#	206234
#	220484
#	236364
#	261639
#	286951
#
# Disc length: 4014 seconds
# Revision: 0
# Processed by: cddbd v1.5.2PL0 Copyright (c) Steve Scherf et al.
# Submitted via: dBpowerAMP V12.0
#
DISCID=d40fab0f
DTITLE=Various Artist - The Classic Love Collection
DYEAR=1900
DGENRE=Classical
TTITLE0=Jules Massenet - Meditation
TTITLE1=Franz Liszt - Liebestraum
TTITLE2=Georges Bizet - Habanera, uit Carmen
TTITLE3=Wolfgang Amadeus Mozart - Adagio Uit Klarinetconcert (Thema "Out of Africa")
TTITLE4=Ludwig Van Beethoven - Für Elize
TTITLE5=Edvard Grieg - Morgenstimmung
TTITLE6=Frédéric Chopin - Nocturne Op. 9/2
TTITLE7=Peter Tchaikovsky - Wals uit de Strijkersserenade
TTITLE8=Frans Liszt - Consolation
TTITLE9=Gustav Mahler - Adagietto, uit Symfonie No. 5 (uit "Dood in Venetië")
TTITLE10=Frédéric Chopin - Wals in As (Afscheidswals)
TTITLE11=Peter Tchaikovsky - Pianoconcert No. 1 (Begin)
TTITLE12=Wolfgang Amadeus Mozart - Andante uit Pianoconcert Nr 21
TTITLE13=Ludwig Van Beethoven - Adagio uit Sonate Pathetique
TTITLE14=Robert Schumann - Träumerei
EXTD=
EXTT0=
EXTT1=
EXTT2=
EXTT3=
EXTT4=
EXTT5=
EXTT6=
EXTT7=
EXTT8=
EXTT9=
EXTT10=
EXTT11=
EXTT12=
EXTT13=
EXTT14=
PLAYORDER=
